# xmcd CD Database Entry
#
# Track frame offsets:
# 150
# 42062
# 84965
# 157437
# 171417
# 203997
# 219702
# 272487
# 291462
#
# Disc length: 4116 seconds
#
# Revision: 1
# Processed by: cddbd v1.4b41PL1 Copyright (c) Steve Scherf et al.
# Submitted via: tcd 2.0b
#
DISCID=8a101209
DTITLE=Billy Connolly - Comedy and Songs
DYEAR=1900
DGENRE=
TTITLE0=Glasgow Accents...Nine And A Half Guitars
TTITLE1=Maries's Wedding (Musical Appreciation)
TTITLE2=The Jobbie Weecha!!!
TTITLE3=The Short-Haired Police Cadet
TTITLE4=Harry Campbell And The Heavies
TTITLE5=Leo McGuire's Story
TTITLE6=A Life In The Day Of
TTITLE7=steel wellies?
TTITLE8=mystery two
EXTD=
EXTT0=
EXTT1=
EXTT2=
EXTT3=
EXTT4=
EXTT5=
EXTT6=
EXTT7=
EXTT8=
PLAYORDER=
